<svg xmlns="http://www.w3.org/2000/svg" viewBox="0 0 335.36 105"><defs><style>.cls-1{fill:#fff;}</style></defs><title>Logo_Horz - Black</title><g id="Logo"><path class="cls-1" d="M145,27.5h28.57q7,0,10.28,3.18t3.29,9.68a11.93,11.93,0,0,1-1.86,7,10,10,0,0,1-4.57,3.75,11.07,11.07,0,0,1,7.86,7.72,16.93,16.93,0,0,1,.71,5.14c0,4.67-1.09,8.09-3.28,10.29s-5.62,3.28-10.29,3.28H145Zm29.28,14.29q0-4.29-4.28-4.29H157.85v10H170q4.27,0,4.28-4.28Zm2.15,20q0-4.29-4.29-4.29H157.85v10h14.29q4.29,0,4.29-4.29Z"/><polygon class="cls-1" points="232.5 77.5 192.5 77.5 192.5 27.5 232.5 27.5 232.5 37.5 205.35 37.5 205.35 47.15 227.5 47.15 227.5 57.14 205.35 57.14 205.35 67.5 232.5 67.5 232.5 77.5"/><path class="cls-1" d="M262.5,77.5H249.65v-40h-15v-10H277.5v10h-15Z"/><path class="cls-1" d="M284.29,77.5H270.36l18.93-50h14.28l18.93,50H308.57l-3.21-8.93H287.5Zm6.42-18.21h11.43L296.43,42.5Z"/><polygon class="cls-1" points="120 12.5 107.5 12.5 107.5 25 120 25 120 80 50 80 50 92.5 120 92.5 132.5 92.5 132.5 80 132.5 12.5 120 12.5"/><polygon class="cls-1" points="25 25 95 25 95 12.5 25 12.5 12.5 12.5 12.5 25 12.5 92.5 25 92.5 37.5 92.5 37.5 80 25 80 25 25"/></g></svg>
